<?xml version="1.0" encoding="UTF-8"?>
<svg id="Layer_2" data-name="Layer 2" xmlns="http://www.w3.org/2000/svg" xmlns:xlink="http://www.w3.org/1999/xlink" viewBox="0 0 700.63 439.64">
  <defs>
    <style>
      .cls-1 {
        fill: url(#linear-gradient);
      }
    </style>
    <linearGradient id="linear-gradient" x1="0" y1="219.82" x2="700.63" y2="219.82" gradientUnits="userSpaceOnUse">
      <stop offset="0" stop-color="#7bbbff"/>
      <stop offset="1" stop-color="#050f2a"/>
    </linearGradient>
  </defs>
  <g id="Layer_1-2" data-name="Layer 1">
    <path class="cls-1" d="M700.63,26.91c0,23.17-2.59,45.74-7.5,67.42-2.38,10.53-5.31,20.85-8.75,30.94-8.83,10.2-18.73,19.46-29.52,27.59-6.79,5.12-13.93,9.79-21.38,13.97-21.84,12.26-46.34,20.33-72.43,23.12-2.42.26-4.85.47-7.31.64,2.08.36,4.17.69,6.27.99,8.69,1.21,17.55,1.84,26.56,1.84,15.96,0,31.46-1.96,46.27-5.68,9.4-2.35,18.52-5.39,27.3-9.08-13.9,24.08-30.99,46.08-50.71,65.42-11.22,11.01-23.31,21.16-36.13,30.34-10.13,5.41-21.17,9.34-32.84,11.5-6.75,1.25-13.73,1.9-20.84,1.9-15.57,0-30.42-3.12-43.94-8.77-.26-.11-.52-.22-.78-.33-3.34-1.42-6.6-3-9.76-4.73,2.13,2.35,4.35,4.63,6.66,6.8.28.27.58.55.88.81,12.28,11.32,27.06,19.98,43.41,25.05-21.72,9.31-44.74,16.15-68.73,20.19-.99.16-1.97.31-2.96.48-.03,0-.05.02-.09.02-34.9,6.23-64.3,28.34-80.47,58.6-8.56,16-13.41,34.29-13.41,53.7,0-19.46-4.87-37.78-13.47-53.81-15.97-29.81-44.81-51.7-79.09-58.24-.04,0-.06,0-.09-.02-1.9-.37-3.82-.68-5.76-.94-2.4-.41-4.78-.85-7.15-1.32-20.96-4.14-41.14-10.44-60.31-18.65,16.74-5.19,31.83-14.14,44.29-25.85,2.32-2.18,4.54-4.45,6.67-6.82-3.18,1.73-6.43,3.31-9.77,4.74-13.73,5.86-28.85,9.1-44.72,9.1-7.12,0-14.09-.65-20.84-1.9-11.67-2.15-22.71-6.09-32.84-11.5-12.82-9.18-24.9-19.33-36.13-30.34-19.72-19.34-36.81-41.34-50.71-65.42,8.79,3.69,17.9,6.73,27.3,9.08,14.81,3.71,30.32,5.68,46.28,5.68,9.01,0,17.87-.63,26.55-1.83,2.11-.3,4.2-.63,6.29-.99-2.45-.16-4.9-.37-7.33-.65-26.08-2.78-50.58-10.86-72.42-23.12-7.45-4.18-14.58-8.85-21.37-13.96-10.8-8.14-20.71-17.4-29.53-27.61C5.71,94.41,0,61.32,0,26.91,0,17.84.39,8.86,1.18,0c28.36,28.28,60.14,53.13,94.66,73.88,5.26,3.17,10.58,6.23,15.96,9.19,2.84,1.58,5.69,3.12,8.57,4.63,38.69,20.37,80.42,35.75,124.31,45.31,2.33.5,4.66.99,7,1.47,12.31,2.49,24.79,4.54,37.42,6.09.37.05.76.1,1.13.15,2.79.34,5.58.65,8.4.94-1.98,3.89-3.75,7.91-5.28,12.05-2.79,7.52-4.82,15.4-5.98,23.58-.6,4.23-.97,8.54-1.09,12.91,0,.09,0,.18,0,.28-.03.55-.04,1.11-.04,1.67,0,.17,0,.34,0,.51.06,5.56,1.33,10.83,3.55,15.57,1.91,4.1,4.54,7.79,7.7,10.93-.02.41-.02.82-.02,1.23,0,10.37,2.07,20.24,5.83,29.25,2.84,6.82,6.64,13.12,11.25,18.76,2.75-13.97,8.06-27.02,15.4-38.66,5.65-8.94,12.51-17.04,20.34-24.07h0s0-.02.02-.02c3.37-2.77,6.77-5.49,10.22-8.17.48-.35.99-.69,1.48-1.02,0-.05.02-.09,0-.14,14-10.8,28.6-20.88,43.74-30.15,4.09-2.52,8.21-4.96,12.38-7.36,3.04-1.74,6.1-3.46,9.18-5.13,7.57-4.14,15.27-8.09,23.08-11.82,1.32-.65,2.66-1.28,3.99-1.89,12.02-5.64,24.29-10.8,36.81-15.47,3.06-1.14,6.13-2.25,9.23-3.33h0c4.54-1.44,9.04-2.95,13.52-4.52t.02,0c22.95-8.04,45.14-17.72,66.41-28.92,2.86-1.5,5.69-3.02,8.51-4.59,5.34-2.93,10.61-5.97,15.82-9.11,34.54-20.72,66.33-45.56,94.72-73.83.77,8.8,1.16,17.7,1.16,26.7ZM341.1,161.46c-2.91-.35-5.88-.52-8.89-.52-5.94,0-11.72.68-17.26,1.96-2.81,7.93-4.33,16.46-4.33,25.35,0,2.54.13,5.06.37,7.53,6.3-14.29,16.87-26.27,30.11-34.32Z"/>
  </g>
</svg>